<mxfile host="app.diagrams.net" modified="2020-12-21T11:48:30.309Z" agent="5.0 (Macintosh; Intel Mac OS X 10_15_6) AppleWebKit/605.1.15 (KHTML, like Gecko) Version/14.0.1 Safari/605.1.15" etag="dhwuu3VrMxpgZghKRM2u" version="13.10.0" type="github">
  <diagram name="Page-1" id="58cdce13-f638-feb5-8d6f-7d28b1aa9fa0">
    <mxGraphModel dx="946" dy="547" grid="1" gridSize="10" guides="1" tooltips="1" connect="1" arrows="1" fold="1" page="1" pageScale="1" pageWidth="1100" pageHeight="850" background="#ffffff" math="0" shadow="0">
      <root>
        <mxCell id="0" />
        <mxCell id="1" parent="0" />
        <mxCell id="2a3bc250acf0617d-8" value="认证SDK&lt;br&gt;自定义UI方案" style="shape=umlFrame;whiteSpace=wrap;html=1;rounded=1;shadow=0;comic=0;labelBackgroundColor=none;strokeWidth=1;fontFamily=Verdana;fontSize=12;align=left;width=80;height=35;dashed=1;" parent="1" vertex="1">
          <mxGeometry x="210" y="50" width="670" height="590" as="geometry" />
        </mxCell>
        <mxCell id="GN_PxulT4pCNGUj4WylT-52" value="" style="rounded=0;whiteSpace=wrap;html=1;shadow=0;dashed=1;comic=0;strokeWidth=1;fillColor=#f5f5f5;fontFamily=Verdana;align=left;fontColor=#333333;strokeColor=none;" vertex="1" parent="1">
          <mxGeometry x="680" y="60" width="190" height="120" as="geometry" />
        </mxCell>
        <mxCell id="GN_PxulT4pCNGUj4WylT-8" value="SDK" style="rounded=1;whiteSpace=wrap;html=1;arcSize=24;strokeColor=#ff0000;shadow=0;comic=0;labelBackgroundColor=none;fontFamily=Verdana;fontSize=12;fontColor=#000000;align=center;horizontal=1;verticalAlign=top;fillColor=#FFCC99;" vertex="1" parent="1">
          <mxGeometry x="390" y="395" width="390" height="210" as="geometry" />
        </mxCell>
        <mxCell id="GN_PxulT4pCNGUj4WylT-44" value="interactive" style="rounded=1;whiteSpace=wrap;html=1;arcSize=24;fillColor=#d5e8d4;strokeColor=#82b366;shadow=0;comic=0;labelBackgroundColor=none;fontFamily=Verdana;fontSize=12;align=center;" vertex="1" parent="1">
          <mxGeometry x="643" y="454" width="80" height="30" as="geometry" />
        </mxCell>
        <mxCell id="GN_PxulT4pCNGUj4WylT-43" value="interactive" style="rounded=1;whiteSpace=wrap;html=1;arcSize=24;fillColor=#d5e8d4;strokeColor=#82b366;shadow=0;comic=0;labelBackgroundColor=none;fontFamily=Verdana;fontSize=12;align=center;" vertex="1" parent="1">
          <mxGeometry x="560" y="430" width="80" height="30" as="geometry" />
        </mxCell>
        <mxCell id="GN_PxulT4pCNGUj4WylT-42" value="interactive" style="rounded=1;whiteSpace=wrap;html=1;arcSize=24;fillColor=#d5e8d4;strokeColor=#82b366;shadow=0;comic=0;labelBackgroundColor=none;fontFamily=Verdana;fontSize=12;align=center;" vertex="1" parent="1">
          <mxGeometry x="480" y="401" width="80" height="30" as="geometry" />
        </mxCell>
        <mxCell id="GN_PxulT4pCNGUj4WylT-15" style="edgeStyle=none;rounded=0;orthogonalLoop=1;jettySize=auto;html=1;dashed=1;fontFamily=Verdana;shape=link;" edge="1" parent="1" source="382b91b5511bd0f7-1">
          <mxGeometry relative="1" as="geometry">
            <mxPoint x="300" y="615" as="targetPoint" />
          </mxGeometry>
        </mxCell>
        <mxCell id="382b91b5511bd0f7-1" value="" style="ellipse;html=1;shape=startState;fillColor=#000000;strokeColor=#ff0000;rounded=1;shadow=0;comic=0;labelBackgroundColor=none;fontFamily=Verdana;fontSize=12;fontColor=#000000;align=center;direction=south;" parent="1" vertex="1">
          <mxGeometry x="287" y="255" width="30" height="30" as="geometry" />
        </mxCell>
        <mxCell id="382b91b5511bd0f7-5" value="APP" style="rounded=1;whiteSpace=wrap;html=1;arcSize=24;fillColor=#ffffc0;strokeColor=#ff0000;shadow=0;comic=0;labelBackgroundColor=none;fontFamily=Verdana;fontSize=12;fontColor=#000000;align=center;horizontal=1;verticalAlign=top;" parent="1" vertex="1">
          <mxGeometry x="460" y="235" width="250" height="70" as="geometry" />
        </mxCell>
        <mxCell id="2a3bc250acf0617d-9" style="edgeStyle=orthogonalEdgeStyle;html=1;labelBackgroundColor=none;endArrow=open;endSize=8;strokeColor=#ff0000;fontFamily=Verdana;fontSize=12;align=left;" parent="1" source="382b91b5511bd0f7-1" target="382b91b5511bd0f7-5" edge="1">
          <mxGeometry relative="1" as="geometry" />
        </mxCell>
        <mxCell id="GN_PxulT4pCNGUj4WylT-50" value="启动" style="edgeLabel;html=1;align=center;verticalAlign=middle;resizable=0;points=[];fontFamily=Verdana;" vertex="1" connectable="0" parent="2a3bc250acf0617d-9">
          <mxGeometry x="0.0629" relative="1" as="geometry">
            <mxPoint x="-3" y="-10" as="offset" />
          </mxGeometry>
        </mxCell>
        <mxCell id="2a3bc250acf0617d-13" style="edgeStyle=orthogonalEdgeStyle;html=1;exitX=1;exitY=0.5;entryX=1;entryY=0.5;labelBackgroundColor=none;endArrow=open;endSize=8;strokeColor=#ff0000;fontFamily=Verdana;fontSize=12;align=left;entryDx=0;entryDy=0;exitDx=0;exitDy=0;" parent="1" source="382b91b5511bd0f7-5" target="GN_PxulT4pCNGUj4WylT-8" edge="1">
          <mxGeometry relative="1" as="geometry">
            <mxPoint x="890" y="435" as="targetPoint" />
            <Array as="points">
              <mxPoint x="810" y="270" />
              <mxPoint x="810" y="500" />
            </Array>
          </mxGeometry>
        </mxCell>
        <mxCell id="GN_PxulT4pCNGUj4WylT-51" value="认证" style="edgeLabel;html=1;align=center;verticalAlign=middle;resizable=0;points=[];fontFamily=Verdana;" vertex="1" connectable="0" parent="2a3bc250acf0617d-13">
          <mxGeometry x="0.1778" y="2" relative="1" as="geometry">
            <mxPoint x="8" as="offset" />
          </mxGeometry>
        </mxCell>
        <mxCell id="GN_PxulT4pCNGUj4WylT-10" style="edgeStyle=orthogonalEdgeStyle;rounded=0;orthogonalLoop=1;jettySize=auto;html=1;entryX=0.5;entryY=0;entryDx=0;entryDy=0;dashed=1;" edge="1" parent="1" source="382b91b5511bd0f7-8" target="GN_PxulT4pCNGUj4WylT-4">
          <mxGeometry relative="1" as="geometry" />
        </mxCell>
        <mxCell id="382b91b5511bd0f7-8" value="interactive" style="rounded=1;whiteSpace=wrap;html=1;arcSize=24;fillColor=#dae8fc;strokeColor=#6c8ebf;shadow=0;comic=0;labelBackgroundColor=none;fontFamily=Verdana;fontSize=12;align=center;" parent="1" vertex="1">
          <mxGeometry x="470" y="265" width="70" height="30" as="geometry" />
        </mxCell>
        <mxCell id="GN_PxulT4pCNGUj4WylT-27" style="edgeStyle=none;rounded=0;orthogonalLoop=1;jettySize=auto;html=1;entryX=0.5;entryY=0;entryDx=0;entryDy=0;dashed=1;fontFamily=Verdana;" edge="1" parent="1" source="GN_PxulT4pCNGUj4WylT-21" target="GN_PxulT4pCNGUj4WylT-23">
          <mxGeometry relative="1" as="geometry" />
        </mxCell>
        <mxCell id="GN_PxulT4pCNGUj4WylT-21" value="interactive" style="rounded=1;whiteSpace=wrap;html=1;arcSize=24;fillColor=#dae8fc;strokeColor=#6c8ebf;shadow=0;comic=0;labelBackgroundColor=none;fontFamily=Verdana;fontSize=12;align=center;" vertex="1" parent="1">
          <mxGeometry x="550" y="265" width="70" height="30" as="geometry" />
        </mxCell>
        <mxCell id="GN_PxulT4pCNGUj4WylT-28" style="edgeStyle=none;rounded=0;orthogonalLoop=1;jettySize=auto;html=1;dashed=1;fontFamily=Verdana;" edge="1" parent="1" source="GN_PxulT4pCNGUj4WylT-22" target="GN_PxulT4pCNGUj4WylT-24">
          <mxGeometry relative="1" as="geometry" />
        </mxCell>
        <mxCell id="GN_PxulT4pCNGUj4WylT-22" value="interactive" style="rounded=1;whiteSpace=wrap;html=1;arcSize=24;strokeColor=#6c8ebf;shadow=0;comic=0;labelBackgroundColor=none;fontFamily=Verdana;fontSize=12;align=center;fillColor=#dae8fc;" vertex="1" parent="1">
          <mxGeometry x="633" y="265" width="70" height="30" as="geometry" />
        </mxCell>
        <mxCell id="GN_PxulT4pCNGUj4WylT-31" style="edgeStyle=none;rounded=0;orthogonalLoop=1;jettySize=auto;html=1;fontFamily=Verdana;" edge="1" parent="1" source="GN_PxulT4pCNGUj4WylT-4">
          <mxGeometry relative="1" as="geometry">
            <mxPoint x="300" y="433.75" as="targetPoint" />
          </mxGeometry>
        </mxCell>
        <mxCell id="GN_PxulT4pCNGUj4WylT-4" value="interactive" style="rounded=1;whiteSpace=wrap;html=1;arcSize=24;fillColor=#dae8fc;strokeColor=#6c8ebf;shadow=0;comic=0;labelBackgroundColor=none;fontFamily=Verdana;fontSize=12;align=center;" vertex="1" parent="1">
          <mxGeometry x="466.25" y="417.5" width="77.5" height="32.5" as="geometry" />
        </mxCell>
        <mxCell id="GN_PxulT4pCNGUj4WylT-32" style="edgeStyle=none;rounded=0;orthogonalLoop=1;jettySize=auto;html=1;fontFamily=Verdana;" edge="1" parent="1" source="GN_PxulT4pCNGUj4WylT-23">
          <mxGeometry relative="1" as="geometry">
            <mxPoint x="300" y="462.25" as="targetPoint" />
          </mxGeometry>
        </mxCell>
        <mxCell id="GN_PxulT4pCNGUj4WylT-23" value="interactive" style="rounded=1;whiteSpace=wrap;html=1;arcSize=24;fillColor=#dae8fc;strokeColor=#6c8ebf;shadow=0;comic=0;labelBackgroundColor=none;fontFamily=Verdana;fontSize=12;align=center;" vertex="1" parent="1">
          <mxGeometry x="546.25" y="446" width="77.5" height="32.5" as="geometry" />
        </mxCell>
        <mxCell id="GN_PxulT4pCNGUj4WylT-33" style="edgeStyle=none;rounded=0;orthogonalLoop=1;jettySize=auto;html=1;fontFamily=Verdana;" edge="1" parent="1" source="GN_PxulT4pCNGUj4WylT-24">
          <mxGeometry relative="1" as="geometry">
            <mxPoint x="300" y="486.75" as="targetPoint" />
          </mxGeometry>
        </mxCell>
        <mxCell id="GN_PxulT4pCNGUj4WylT-24" value="interactive" style="rounded=1;whiteSpace=wrap;html=1;arcSize=24;fillColor=#dae8fc;strokeColor=#6c8ebf;shadow=0;comic=0;labelBackgroundColor=none;fontFamily=Verdana;fontSize=12;align=center;" vertex="1" parent="1">
          <mxGeometry x="628" y="470.5" width="77.5" height="32.5" as="geometry" />
        </mxCell>
        <mxCell id="GN_PxulT4pCNGUj4WylT-34" style="edgeStyle=none;rounded=0;orthogonalLoop=1;jettySize=auto;html=1;fontFamily=Verdana;" edge="1" parent="1" source="GN_PxulT4pCNGUj4WylT-18">
          <mxGeometry relative="1" as="geometry">
            <mxPoint x="304" y="525" as="targetPoint" />
          </mxGeometry>
        </mxCell>
        <mxCell id="GN_PxulT4pCNGUj4WylT-18" value="interactive" style="rounded=1;whiteSpace=wrap;html=1;arcSize=24;fillColor=#d5e8d4;strokeColor=#82b366;shadow=0;comic=0;labelBackgroundColor=none;fontFamily=Verdana;fontSize=12;align=center;" vertex="1" parent="1">
          <mxGeometry x="660" y="513" width="80" height="30" as="geometry" />
        </mxCell>
        <mxCell id="GN_PxulT4pCNGUj4WylT-35" style="edgeStyle=none;rounded=0;orthogonalLoop=1;jettySize=auto;html=1;fontFamily=Verdana;" edge="1" parent="1" source="GN_PxulT4pCNGUj4WylT-29">
          <mxGeometry relative="1" as="geometry">
            <mxPoint x="300" y="550" as="targetPoint" />
          </mxGeometry>
        </mxCell>
        <mxCell id="GN_PxulT4pCNGUj4WylT-29" value="interactive" style="rounded=1;whiteSpace=wrap;html=1;arcSize=24;fillColor=#d5e8d4;strokeColor=#82b366;shadow=0;comic=0;labelBackgroundColor=none;fontFamily=Verdana;fontSize=12;align=center;" vertex="1" parent="1">
          <mxGeometry x="420" y="535" width="80" height="30" as="geometry" />
        </mxCell>
        <mxCell id="GN_PxulT4pCNGUj4WylT-36" style="edgeStyle=none;rounded=0;orthogonalLoop=1;jettySize=auto;html=1;fontFamily=Verdana;" edge="1" parent="1" source="GN_PxulT4pCNGUj4WylT-30">
          <mxGeometry relative="1" as="geometry">
            <mxPoint x="300" y="575" as="targetPoint" />
          </mxGeometry>
        </mxCell>
        <mxCell id="GN_PxulT4pCNGUj4WylT-30" value="interactive" style="rounded=1;whiteSpace=wrap;html=1;arcSize=24;fillColor=#d5e8d4;strokeColor=#82b366;shadow=0;comic=0;labelBackgroundColor=none;fontFamily=Verdana;fontSize=12;align=center;" vertex="1" parent="1">
          <mxGeometry x="546.25" y="562" width="80" height="30" as="geometry" />
        </mxCell>
        <mxCell id="GN_PxulT4pCNGUj4WylT-37" value="" style="ellipse;html=1;shape=startState;fillColor=#000000;strokeColor=#ff0000;rounded=1;shadow=0;comic=0;labelBackgroundColor=none;fontFamily=Verdana;fontSize=12;fontColor=#000000;align=center;direction=south;" vertex="1" parent="1">
          <mxGeometry x="700" y="71" width="20" height="20" as="geometry" />
        </mxCell>
        <mxCell id="GN_PxulT4pCNGUj4WylT-39" value="用户" style="text;html=1;strokeColor=none;fillColor=none;align=center;verticalAlign=middle;whiteSpace=wrap;rounded=0;shadow=0;dashed=1;comic=0;fontFamily=Verdana;" vertex="1" parent="1">
          <mxGeometry x="723" y="71" width="40" height="20" as="geometry" />
        </mxCell>
        <mxCell id="GN_PxulT4pCNGUj4WylT-40" value="APP自定义界面" style="rounded=1;whiteSpace=wrap;html=1;arcSize=24;fillColor=#dae8fc;strokeColor=#6c8ebf;shadow=0;comic=0;labelBackgroundColor=none;fontFamily=Verdana;fontSize=12;align=center;" vertex="1" parent="1">
          <mxGeometry x="700" y="103" width="90" height="30" as="geometry" />
        </mxCell>
        <mxCell id="GN_PxulT4pCNGUj4WylT-45" value="SDK标准界面" style="rounded=1;whiteSpace=wrap;html=1;arcSize=24;fillColor=#d5e8d4;strokeColor=#82b366;shadow=0;comic=0;labelBackgroundColor=none;fontFamily=Verdana;fontSize=12;align=center;" vertex="1" parent="1">
          <mxGeometry x="700" y="143" width="90" height="30" as="geometry" />
        </mxCell>
        <mxCell id="GN_PxulT4pCNGUj4WylT-46" style="edgeStyle=none;rounded=0;orthogonalLoop=1;jettySize=auto;html=1;dashed=1;fontFamily=Verdana;" edge="1" parent="1">
          <mxGeometry relative="1" as="geometry">
            <mxPoint x="821.0593107617896" y="119" as="sourcePoint" />
            <mxPoint x="820" y="149" as="targetPoint" />
          </mxGeometry>
        </mxCell>
        <mxCell id="GN_PxulT4pCNGUj4WylT-47" value="注册" style="text;html=1;strokeColor=none;fillColor=none;align=center;verticalAlign=middle;whiteSpace=wrap;rounded=0;shadow=0;dashed=1;comic=0;fontFamily=Verdana;" vertex="1" parent="1">
          <mxGeometry x="820" y="123" width="40" height="20" as="geometry" />
        </mxCell>
        <mxCell id="GN_PxulT4pCNGUj4WylT-48" style="edgeStyle=none;rounded=0;orthogonalLoop=1;jettySize=auto;html=1;fontFamily=Verdana;" edge="1" parent="1">
          <mxGeometry relative="1" as="geometry">
            <mxPoint x="800" y="81" as="targetPoint" />
            <mxPoint x="820" y="81" as="sourcePoint" />
          </mxGeometry>
        </mxCell>
        <mxCell id="GN_PxulT4pCNGUj4WylT-49" value="界面显示" style="text;html=1;strokeColor=none;fillColor=none;align=center;verticalAlign=middle;whiteSpace=wrap;rounded=0;shadow=0;dashed=1;comic=0;fontFamily=Verdana;" vertex="1" parent="1">
          <mxGeometry x="820" y="71" width="50" height="20" as="geometry" />
        </mxCell>
      </root>
    </mxGraphModel>
  </diagram>
</mxfile>
